<mxfile host="app.diagrams.net" modified="2023-12-12T19:17:48.794Z" agent="Mozilla/5.0 (X11; Ubuntu; Linux x86_64; rv:120.0) Gecko/20100101 Firefox/120.0" etag="Zhk_VrMF7DVp_KAEI6mG" version="22.1.8" type="device">
  <diagram name="Page-1" id="4dOPPDbbBpMbpTxlgShJ">
    <mxGraphModel dx="1554" dy="1329" grid="1" gridSize="10" guides="1" tooltips="1" connect="1" arrows="1" fold="1" page="1" pageScale="1" pageWidth="1100" pageHeight="850" math="0" shadow="0">
      <root>
        <mxCell id="0" />
        <mxCell id="1" parent="0" />
        <mxCell id="wNPNJb9bn9iIg6rWZZNa-55" style="edgeStyle=orthogonalEdgeStyle;rounded=1;orthogonalLoop=1;jettySize=auto;html=1;endArrow=none;endFill=0;strokeWidth=3;exitX=0.986;exitY=0.08;exitDx=0;exitDy=0;exitPerimeter=0;" edge="1" parent="1" source="wNPNJb9bn9iIg6rWZZNa-1" target="wNPNJb9bn9iIg6rWZZNa-54">
          <mxGeometry relative="1" as="geometry">
            <Array as="points">
              <mxPoint x="590" y="172" />
              <mxPoint x="590" y="355" />
            </Array>
          </mxGeometry>
        </mxCell>
        <mxCell id="wNPNJb9bn9iIg6rWZZNa-1" value="DB9 Connector" style="swimlane;fontStyle=0;childLayout=stackLayout;horizontal=1;startSize=30;horizontalStack=0;resizeParent=1;resizeParentMax=0;resizeLast=0;collapsible=1;marginBottom=0;whiteSpace=wrap;html=1;" vertex="1" parent="1">
          <mxGeometry x="385" y="160" width="140" height="150" as="geometry" />
        </mxCell>
        <mxCell id="wNPNJb9bn9iIg6rWZZNa-27" value="Pin 1: DCD (PPS)" style="text;strokeColor=none;fillColor=none;align=left;verticalAlign=middle;spacingLeft=4;spacingRight=4;overflow=hidden;points=[[0,0.5],[1,0.5]];portConstraint=eastwest;rotatable=0;whiteSpace=wrap;html=1;" vertex="1" parent="wNPNJb9bn9iIg6rWZZNa-1">
          <mxGeometry y="30" width="140" height="30" as="geometry" />
        </mxCell>
        <mxCell id="wNPNJb9bn9iIg6rWZZNa-2" value="Pin 2: RXD" style="text;strokeColor=none;fillColor=none;align=left;verticalAlign=middle;spacingLeft=4;spacingRight=4;overflow=hidden;points=[[0,0.5],[1,0.5]];portConstraint=eastwest;rotatable=0;whiteSpace=wrap;html=1;" vertex="1" parent="wNPNJb9bn9iIg6rWZZNa-1">
          <mxGeometry y="60" width="140" height="30" as="geometry" />
        </mxCell>
        <mxCell id="wNPNJb9bn9iIg6rWZZNa-3" value="Pin 3:&amp;nbsp; TXD" style="text;strokeColor=none;fillColor=none;align=left;verticalAlign=middle;spacingLeft=4;spacingRight=4;overflow=hidden;points=[[0,0.5],[1,0.5]];portConstraint=eastwest;rotatable=0;whiteSpace=wrap;html=1;" vertex="1" parent="wNPNJb9bn9iIg6rWZZNa-1">
          <mxGeometry y="90" width="140" height="30" as="geometry" />
        </mxCell>
        <mxCell id="wNPNJb9bn9iIg6rWZZNa-4" value="Pin 5: Ground" style="text;strokeColor=none;fillColor=none;align=left;verticalAlign=middle;spacingLeft=4;spacingRight=4;overflow=hidden;points=[[0,0.5],[1,0.5]];portConstraint=eastwest;rotatable=0;whiteSpace=wrap;html=1;" vertex="1" parent="wNPNJb9bn9iIg6rWZZNa-1">
          <mxGeometry y="120" width="140" height="30" as="geometry" />
        </mxCell>
        <mxCell id="wNPNJb9bn9iIg6rWZZNa-5" value="Microstrain Micro DB9 (AUX PORT)" style="swimlane;fontStyle=0;childLayout=stackLayout;horizontal=1;startSize=30;horizontalStack=0;resizeParent=1;resizeParentMax=0;resizeLast=0;collapsible=1;marginBottom=0;whiteSpace=wrap;html=1;" vertex="1" parent="1">
          <mxGeometry x="85" y="130" width="140" height="300" as="geometry" />
        </mxCell>
        <mxCell id="wNPNJb9bn9iIg6rWZZNa-50" style="edgeStyle=orthogonalEdgeStyle;rounded=0;orthogonalLoop=1;jettySize=auto;html=1;exitX=1;exitY=0.5;exitDx=0;exitDy=0;strokeWidth=3;endArrow=oval;endFill=0;" edge="1" parent="wNPNJb9bn9iIg6rWZZNa-5" source="wNPNJb9bn9iIg6rWZZNa-6">
          <mxGeometry relative="1" as="geometry">
            <mxPoint x="180" y="45" as="targetPoint" />
          </mxGeometry>
        </mxCell>
        <mxCell id="wNPNJb9bn9iIg6rWZZNa-6" value="Pin 1: USB D-" style="text;strokeColor=none;fillColor=none;align=left;verticalAlign=middle;spacingLeft=4;spacingRight=4;overflow=hidden;points=[[0,0.5],[1,0.5]];portConstraint=eastwest;rotatable=0;whiteSpace=wrap;html=1;" vertex="1" parent="wNPNJb9bn9iIg6rWZZNa-5">
          <mxGeometry y="30" width="140" height="30" as="geometry" />
        </mxCell>
        <mxCell id="wNPNJb9bn9iIg6rWZZNa-49" style="edgeStyle=orthogonalEdgeStyle;rounded=0;orthogonalLoop=1;jettySize=auto;html=1;strokeColor=#6D1F00;strokeWidth=3;endArrow=oval;endFill=0;fillColor=#a0522d;" edge="1" parent="wNPNJb9bn9iIg6rWZZNa-5" source="wNPNJb9bn9iIg6rWZZNa-7">
          <mxGeometry relative="1" as="geometry">
            <mxPoint x="180" y="75" as="targetPoint" />
          </mxGeometry>
        </mxCell>
        <mxCell id="wNPNJb9bn9iIg6rWZZNa-7" value="Pin 2: USB D+" style="text;strokeColor=none;fillColor=none;align=left;verticalAlign=middle;spacingLeft=4;spacingRight=4;overflow=hidden;points=[[0,0.5],[1,0.5]];portConstraint=eastwest;rotatable=0;whiteSpace=wrap;html=1;" vertex="1" parent="wNPNJb9bn9iIg6rWZZNa-5">
          <mxGeometry y="60" width="140" height="30" as="geometry" />
        </mxCell>
        <mxCell id="wNPNJb9bn9iIg6rWZZNa-48" style="edgeStyle=orthogonalEdgeStyle;rounded=1;orthogonalLoop=1;jettySize=auto;html=1;strokeColor=#FF3333;endArrow=oval;endFill=0;strokeWidth=3;" edge="1" parent="wNPNJb9bn9iIg6rWZZNa-5" source="wNPNJb9bn9iIg6rWZZNa-9">
          <mxGeometry relative="1" as="geometry">
            <mxPoint x="180" y="105" as="targetPoint" />
          </mxGeometry>
        </mxCell>
        <mxCell id="wNPNJb9bn9iIg6rWZZNa-9" value="Pin 3: V Primary" style="text;strokeColor=none;fillColor=none;align=left;verticalAlign=middle;spacingLeft=4;spacingRight=4;overflow=hidden;points=[[0,0.5],[1,0.5]];portConstraint=eastwest;rotatable=0;whiteSpace=wrap;html=1;" vertex="1" parent="wNPNJb9bn9iIg6rWZZNa-5">
          <mxGeometry y="90" width="140" height="30" as="geometry" />
        </mxCell>
        <mxCell id="wNPNJb9bn9iIg6rWZZNa-10" value="Pin 4: RS-232 RX" style="text;strokeColor=none;fillColor=none;align=left;verticalAlign=middle;spacingLeft=4;spacingRight=4;overflow=hidden;points=[[0,0.5],[1,0.5]];portConstraint=eastwest;rotatable=0;whiteSpace=wrap;html=1;" vertex="1" parent="wNPNJb9bn9iIg6rWZZNa-5">
          <mxGeometry y="120" width="140" height="30" as="geometry" />
        </mxCell>
        <mxCell id="wNPNJb9bn9iIg6rWZZNa-12" value="Pin 5: RS-232 TX" style="text;strokeColor=none;fillColor=none;align=left;verticalAlign=middle;spacingLeft=4;spacingRight=4;overflow=hidden;points=[[0,0.5],[1,0.5]];portConstraint=eastwest;rotatable=0;whiteSpace=wrap;html=1;" vertex="1" parent="wNPNJb9bn9iIg6rWZZNa-5">
          <mxGeometry y="150" width="140" height="30" as="geometry" />
        </mxCell>
        <mxCell id="wNPNJb9bn9iIg6rWZZNa-51" style="edgeStyle=orthogonalEdgeStyle;rounded=0;orthogonalLoop=1;jettySize=auto;html=1;endArrow=oval;endFill=0;strokeColor=#00FF00;strokeWidth=3;" edge="1" parent="wNPNJb9bn9iIg6rWZZNa-5" source="wNPNJb9bn9iIg6rWZZNa-13">
          <mxGeometry relative="1" as="geometry">
            <mxPoint x="180" y="195" as="targetPoint" />
          </mxGeometry>
        </mxCell>
        <mxCell id="wNPNJb9bn9iIg6rWZZNa-13" value="Pin 6: V Auxillary" style="text;strokeColor=none;fillColor=none;align=left;verticalAlign=middle;spacingLeft=4;spacingRight=4;overflow=hidden;points=[[0,0.5],[1,0.5]];portConstraint=eastwest;rotatable=0;whiteSpace=wrap;html=1;" vertex="1" parent="wNPNJb9bn9iIg6rWZZNa-5">
          <mxGeometry y="180" width="140" height="30" as="geometry" />
        </mxCell>
        <mxCell id="wNPNJb9bn9iIg6rWZZNa-14" value="Pin 7: GPIO 3" style="text;strokeColor=none;fillColor=none;align=left;verticalAlign=middle;spacingLeft=4;spacingRight=4;overflow=hidden;points=[[0,0.5],[1,0.5]];portConstraint=eastwest;rotatable=0;whiteSpace=wrap;html=1;" vertex="1" parent="wNPNJb9bn9iIg6rWZZNa-5">
          <mxGeometry y="210" width="140" height="30" as="geometry" />
        </mxCell>
        <mxCell id="wNPNJb9bn9iIg6rWZZNa-15" value="Pin 8: Ground" style="text;strokeColor=none;fillColor=none;align=left;verticalAlign=middle;spacingLeft=4;spacingRight=4;overflow=hidden;points=[[0,0.5],[1,0.5]];portConstraint=eastwest;rotatable=0;whiteSpace=wrap;html=1;" vertex="1" parent="wNPNJb9bn9iIg6rWZZNa-5">
          <mxGeometry y="240" width="140" height="30" as="geometry" />
        </mxCell>
        <mxCell id="wNPNJb9bn9iIg6rWZZNa-52" style="edgeStyle=orthogonalEdgeStyle;rounded=0;orthogonalLoop=1;jettySize=auto;html=1;strokeColor=#B3B3B3;strokeWidth=3;endArrow=oval;endFill=0;" edge="1" parent="wNPNJb9bn9iIg6rWZZNa-5" source="wNPNJb9bn9iIg6rWZZNa-8">
          <mxGeometry relative="1" as="geometry">
            <mxPoint x="180" y="285" as="targetPoint" />
          </mxGeometry>
        </mxCell>
        <mxCell id="wNPNJb9bn9iIg6rWZZNa-8" value="Pin 9: GPIO 4" style="text;strokeColor=none;fillColor=none;align=left;verticalAlign=middle;spacingLeft=4;spacingRight=4;overflow=hidden;points=[[0,0.5],[1,0.5]];portConstraint=eastwest;rotatable=0;whiteSpace=wrap;html=1;" vertex="1" parent="wNPNJb9bn9iIg6rWZZNa-5">
          <mxGeometry y="270" width="140" height="30" as="geometry" />
        </mxCell>
        <mxCell id="wNPNJb9bn9iIg6rWZZNa-17" style="edgeStyle=orthogonalEdgeStyle;orthogonalLoop=1;jettySize=auto;html=1;fillColor=#6a00ff;strokeColor=#9933FF;strokeWidth=3;rounded=1;endArrow=none;endFill=0;" edge="1" parent="1" source="wNPNJb9bn9iIg6rWZZNa-15" target="wNPNJb9bn9iIg6rWZZNa-4">
          <mxGeometry relative="1" as="geometry">
            <Array as="points">
              <mxPoint x="335" y="385" />
              <mxPoint x="335" y="295" />
            </Array>
          </mxGeometry>
        </mxCell>
        <mxCell id="wNPNJb9bn9iIg6rWZZNa-19" style="edgeStyle=orthogonalEdgeStyle;rounded=1;orthogonalLoop=1;jettySize=auto;html=1;strokeColor=#FF9933;strokeWidth=4;endArrow=none;endFill=0;" edge="1" parent="1" source="wNPNJb9bn9iIg6rWZZNa-10" target="wNPNJb9bn9iIg6rWZZNa-3">
          <mxGeometry relative="1" as="geometry" />
        </mxCell>
        <mxCell id="wNPNJb9bn9iIg6rWZZNa-20" style="edgeStyle=orthogonalEdgeStyle;rounded=1;orthogonalLoop=1;jettySize=auto;html=1;strokeColor=#fce94f;strokeWidth=3;endArrow=none;endFill=0;entryX=0;entryY=0.5;entryDx=0;entryDy=0;" edge="1" parent="1" source="wNPNJb9bn9iIg6rWZZNa-12" target="wNPNJb9bn9iIg6rWZZNa-2">
          <mxGeometry relative="1" as="geometry">
            <Array as="points">
              <mxPoint x="290" y="295" />
              <mxPoint x="290" y="235" />
            </Array>
          </mxGeometry>
        </mxCell>
        <mxCell id="wNPNJb9bn9iIg6rWZZNa-59" style="edgeStyle=orthogonalEdgeStyle;rounded=1;orthogonalLoop=1;jettySize=auto;html=1;strokeWidth=3;endArrow=none;endFill=0;exitX=1.014;exitY=0.178;exitDx=0;exitDy=0;exitPerimeter=0;" edge="1" parent="1" source="wNPNJb9bn9iIg6rWZZNa-21" target="wNPNJb9bn9iIg6rWZZNa-57">
          <mxGeometry relative="1" as="geometry">
            <Array as="points">
              <mxPoint x="615" y="406" />
              <mxPoint x="615" y="515" />
            </Array>
          </mxGeometry>
        </mxCell>
        <mxCell id="wNPNJb9bn9iIg6rWZZNa-21" value="PPS BNC Connector" style="swimlane;fontStyle=0;childLayout=stackLayout;horizontal=1;startSize=30;horizontalStack=0;resizeParent=1;resizeParentMax=0;resizeLast=0;collapsible=1;marginBottom=0;whiteSpace=wrap;html=1;" vertex="1" parent="1">
          <mxGeometry x="385" y="390" width="140" height="90" as="geometry" />
        </mxCell>
        <mxCell id="wNPNJb9bn9iIg6rWZZNa-22" value="Ground:&amp;nbsp;&amp;nbsp; Coax Jacket" style="text;strokeColor=none;fillColor=none;align=left;verticalAlign=middle;spacingLeft=4;spacingRight=4;overflow=hidden;points=[[0,0.5],[1,0.5]];portConstraint=eastwest;rotatable=0;whiteSpace=wrap;html=1;" vertex="1" parent="wNPNJb9bn9iIg6rWZZNa-21">
          <mxGeometry y="30" width="140" height="30" as="geometry" />
        </mxCell>
        <mxCell id="wNPNJb9bn9iIg6rWZZNa-23" value="Signal:&amp;nbsp; Center wire" style="text;strokeColor=none;fillColor=none;align=left;verticalAlign=middle;spacingLeft=4;spacingRight=4;overflow=hidden;points=[[0,0.5],[1,0.5]];portConstraint=eastwest;rotatable=0;whiteSpace=wrap;html=1;" vertex="1" parent="wNPNJb9bn9iIg6rWZZNa-21">
          <mxGeometry y="60" width="140" height="30" as="geometry" />
        </mxCell>
        <mxCell id="wNPNJb9bn9iIg6rWZZNa-26" style="edgeStyle=orthogonalEdgeStyle;rounded=1;orthogonalLoop=1;jettySize=auto;html=1;fillColor=#0050ef;strokeColor=#007FFF;strokeWidth=3;endArrow=none;endFill=0;" edge="1" parent="1" source="wNPNJb9bn9iIg6rWZZNa-14" target="wNPNJb9bn9iIg6rWZZNa-23">
          <mxGeometry relative="1" as="geometry">
            <Array as="points">
              <mxPoint x="315" y="355" />
              <mxPoint x="315" y="465" />
            </Array>
          </mxGeometry>
        </mxCell>
        <mxCell id="wNPNJb9bn9iIg6rWZZNa-28" style="edgeStyle=orthogonalEdgeStyle;rounded=1;orthogonalLoop=1;jettySize=auto;html=1;fillColor=#0050ef;strokeColor=#007FFF;strokeWidth=3;endArrow=none;endFill=0;" edge="1" parent="1" source="wNPNJb9bn9iIg6rWZZNa-14" target="wNPNJb9bn9iIg6rWZZNa-27">
          <mxGeometry relative="1" as="geometry">
            <Array as="points">
              <mxPoint x="315" y="355" />
              <mxPoint x="315" y="215" />
            </Array>
          </mxGeometry>
        </mxCell>
        <mxCell id="wNPNJb9bn9iIg6rWZZNa-29" style="edgeStyle=orthogonalEdgeStyle;rounded=1;orthogonalLoop=1;jettySize=auto;html=1;endArrow=none;endFill=0;strokeWidth=3;strokeColor=#9933FF;fillColor=#6a00ff;" edge="1" parent="1" source="wNPNJb9bn9iIg6rWZZNa-15" target="wNPNJb9bn9iIg6rWZZNa-22">
          <mxGeometry relative="1" as="geometry">
            <Array as="points">
              <mxPoint x="335" y="385" />
              <mxPoint x="335" y="435" />
            </Array>
          </mxGeometry>
        </mxCell>
        <mxCell id="wNPNJb9bn9iIg6rWZZNa-31" value="&lt;div&gt;&lt;b&gt;Note:&amp;nbsp; GPIO4 can not be used to emit PPS!&lt;/b&gt;&lt;/div&gt;&lt;div&gt;&lt;b&gt;GPIO3 Must be used&lt;br&gt;&lt;/b&gt;&lt;/div&gt;" style="rounded=1;whiteSpace=wrap;html=1;fillColor=#FFFF99;fontColor=#000000;strokeColor=#c4a000;strokeWidth=4;" vertex="1" parent="1">
          <mxGeometry x="80" y="440" width="150" height="60" as="geometry" />
        </mxCell>
        <mxCell id="wNPNJb9bn9iIg6rWZZNa-32" value="&lt;div&gt;&lt;b&gt;Wire Colors Correspond to that of Micro DB9 Connector listed in the TREVOR documentation:&lt;/b&gt;&lt;/div&gt;&lt;div&gt;&lt;b&gt;Part No: &lt;/b&gt;&lt;br/&gt;6224-0100                                            &lt;/div&gt;" style="rounded=1;whiteSpace=wrap;html=1;fillColor=#FFFF99;fontColor=#000000;strokeColor=#c4a000;strokeWidth=4;" vertex="1" parent="1">
          <mxGeometry x="200" y="40" width="230" height="80" as="geometry" />
        </mxCell>
        <mxCell id="wNPNJb9bn9iIg6rWZZNa-33" value="Microstrain USB&amp;nbsp; Main Port" style="swimlane;fontStyle=0;childLayout=stackLayout;horizontal=1;startSize=30;horizontalStack=0;resizeParent=1;resizeParentMax=0;resizeLast=0;collapsible=1;marginBottom=0;whiteSpace=wrap;html=1;" vertex="1" parent="1">
          <mxGeometry x="90" y="520" width="140" height="60" as="geometry" />
        </mxCell>
        <mxCell id="wNPNJb9bn9iIg6rWZZNa-34" value="USB Adapter Cable" style="text;strokeColor=none;fillColor=none;align=left;verticalAlign=middle;spacingLeft=4;spacingRight=4;overflow=hidden;points=[[0,0.5],[1,0.5]];portConstraint=eastwest;rotatable=0;whiteSpace=wrap;html=1;" vertex="1" parent="wNPNJb9bn9iIg6rWZZNa-33">
          <mxGeometry y="30" width="140" height="30" as="geometry" />
        </mxCell>
        <mxCell id="wNPNJb9bn9iIg6rWZZNa-43" value="Trevor PC" style="swimlane;fontStyle=0;childLayout=stackLayout;horizontal=1;startSize=30;horizontalStack=0;resizeParent=1;resizeParentMax=0;resizeLast=0;collapsible=1;marginBottom=0;whiteSpace=wrap;html=1;" vertex="1" parent="1">
          <mxGeometry x="635" y="310" width="140" height="90" as="geometry" />
        </mxCell>
        <mxCell id="wNPNJb9bn9iIg6rWZZNa-54" value="DB9 Port 1" style="text;strokeColor=none;fillColor=none;align=left;verticalAlign=middle;spacingLeft=4;spacingRight=4;overflow=hidden;points=[[0,0.5],[1,0.5]];portConstraint=eastwest;rotatable=0;whiteSpace=wrap;html=1;" vertex="1" parent="wNPNJb9bn9iIg6rWZZNa-43">
          <mxGeometry y="30" width="140" height="30" as="geometry" />
        </mxCell>
        <mxCell id="wNPNJb9bn9iIg6rWZZNa-53" value="USB Port" style="text;strokeColor=none;fillColor=none;align=left;verticalAlign=middle;spacingLeft=4;spacingRight=4;overflow=hidden;points=[[0,0.5],[1,0.5]];portConstraint=eastwest;rotatable=0;whiteSpace=wrap;html=1;" vertex="1" parent="wNPNJb9bn9iIg6rWZZNa-43">
          <mxGeometry y="60" width="140" height="30" as="geometry" />
        </mxCell>
        <mxCell id="wNPNJb9bn9iIg6rWZZNa-47" style="edgeStyle=orthogonalEdgeStyle;rounded=1;orthogonalLoop=1;jettySize=auto;html=1;strokeWidth=3;endArrow=none;endFill=0;" edge="1" parent="1" source="wNPNJb9bn9iIg6rWZZNa-34" target="wNPNJb9bn9iIg6rWZZNa-53">
          <mxGeometry relative="1" as="geometry">
            <Array as="points">
              <mxPoint x="585" y="565" />
              <mxPoint x="585" y="385" />
            </Array>
          </mxGeometry>
        </mxCell>
        <mxCell id="wNPNJb9bn9iIg6rWZZNa-56" value="Payload" style="swimlane;fontStyle=0;childLayout=stackLayout;horizontal=1;startSize=30;horizontalStack=0;resizeParent=1;resizeParentMax=0;resizeLast=0;collapsible=1;marginBottom=0;whiteSpace=wrap;html=1;" vertex="1" parent="1">
          <mxGeometry x="635" y="470" width="140" height="60" as="geometry" />
        </mxCell>
        <mxCell id="wNPNJb9bn9iIg6rWZZNa-57" value="PPS In" style="text;strokeColor=none;fillColor=none;align=left;verticalAlign=middle;spacingLeft=4;spacingRight=4;overflow=hidden;points=[[0,0.5],[1,0.5]];portConstraint=eastwest;rotatable=0;whiteSpace=wrap;html=1;" vertex="1" parent="wNPNJb9bn9iIg6rWZZNa-56">
          <mxGeometry y="30" width="140" height="30" as="geometry" />
        </mxCell>
      </root>
    </mxGraphModel>
  </diagram>
</mxfile>
